<?xml version="1.0" encoding="UTF-8"?><svg id="Capa_1" xmlns="http://www.w3.org/2000/svg" viewBox="0 0 1088 610"><defs><style>.cls-1{fill:#fff;}</style></defs><path class="cls-1" d="M343.8,72.7c-2.4.9-3.6,1.4-6.1,2.4,2.4,6,3.6,8.9,6,14.9-2.3.9-3.4,1.4-5.7,2.3-5.1-12.3-10.2-24.7-15.3-37,6.1-2.5,9.2-3.8,15.4-6.1,8-3.1,15.6-.1,17.8,6.3,1.9,5.4-.5,11.1-5.9,14.5,6.3,4.6,9.5,7,15.6,11.8-2.7.9-4,1.4-6.6,2.4-6-4.6-9-6.9-15.2-11.4ZM349.8,57.6c-1.3-3.6-5.4-5.4-10.5-3.5-3.4,1.3-5.2,2-8.6,3.4,2.1,5.2,3.1,7.8,5.2,13,3.3-1.3,5-2,8.4-3.3,4.9-1.9,6.8-6,5.5-9.5Z"/><path class="cls-1" d="M370.4,37.9c9.7-3.1,14.6-4.5,24.5-7.1.5,2,.8,3,1.3,5-7.3,1.9-10.9,3-18.1,5.1,1.4,4.6,2.1,7,3.5,11.6,6.6-2,9.9-2.9,16.6-4.7.5,2,.8,2.9,1.3,4.9-6.6,1.8-9.9,2.7-16.4,4.7,1.5,4.8,2.2,7.2,3.6,12,6.9-2.1,10.4-3.1,17.4-4.9.5,2,.8,3,1.3,5-9.3,2.5-13.9,3.8-23,6.7-4-12.8-8-25.5-12-38.3Z"/><path class="cls-1" d="M447,32.3c1.2,7.2-3.6,13.5-11.6,15.1-3.8.8-5.8,1.2-9.6,2,1.3,5.7,1.9,8.6,3.1,14.4-2.4.5-3.5.8-5.9,1.3-3-13-6-26.1-9-39.1,6.5-1.5,9.8-2.2,16.4-3.5,8.4-1.7,15.3,2.6,16.5,9.8ZM440.7,33.5c-.8-4.3-4.8-6.9-9.9-5.8-3.7.7-5.6,1.1-9.3,2,1.3,5.9,1.9,8.9,3.2,14.8,3.6-.8,5.4-1.2,9.1-1.9,5-1,7.7-4.8,6.9-9.1Z"/><path class="cls-1" d="M463.2,37.2c-1.8-12.2,7.5-22.2,19.3-23.5,11.9-1.3,22.9,6.6,23.7,18.9.7,11.7-7.8,21.4-19.3,22.6-11.6,1.2-22-6.5-23.7-18.1ZM499.9,33.1c-.7-9-7.6-15.1-16.8-14.1s-14.7,8.4-13.5,17.3c1.2,9.1,8.1,14.6,16.8,13.7,8.7-.9,14.3-7.8,13.6-16.9Z"/><path class="cls-1" d="M534.2,26.6c2.9,1.6,4.3,2.3,7.2,3.9,4.5,2.6,7.6,5.8,7.5,10.8,0,6.7-5.2,11-12.9,11.1-8.2.1-12.6-4.8-13.7-11.3,2.1-.8,3.2-1.2,5.4-1.9.6,3.9,3.3,8,8.5,7.9,4.2,0,6.6-2.4,6.6-5.7,0-2.2-1.2-4.3-4.6-6.2-2.6-1.4-3.9-2.1-6.5-3.5-4.5-2.3-8.3-4.6-8.5-10.5-.2-5.6,4.4-10.5,12.3-10.6,7.5,0,11.8,3.4,13.3,9.3-2.2.7-3.3,1-5.5,1.7-1.3-4.1-4.1-5.8-8-5.8-3.7,0-6,2.1-5.9,4.9,0,2.8,1.7,4.2,4.9,5.8Z"/><path class="cls-1" d="M575.1,17.4c-4.6-.3-7-.4-11.6-.5,0-2.1.1-3.1.2-5.1,10,.3,20,1,29.9,1.9-.2,2-.3,3.1-.5,5.1-4.6-.4-7-.6-11.6-.9-.8,11.6-1.6,23.3-2.4,34.9-2.4-.2-3.6-.2-6-.4.7-11.6,1.3-23.3,2-34.9Z"/><path class="cls-1" d="M610.8,15.4c10,1.2,15.1,1.9,25.1,3.5-.3,2-.5,3-.8,5.1-7.4-1.2-11.1-1.8-18.5-2.7-.6,4.8-.9,7.2-1.6,12,6.8.9,10.2,1.4,16.9,2.5-.3,2-.5,3-.8,5-6.7-1.1-10.1-1.6-16.8-2.5-.6,5-1,7.5-1.6,12.5,7.1.9,10.7,1.5,17.8,2.6-.3,2-.5,3.1-.8,5.1-9.4-1.5-14.1-2.2-23.6-3.3,1.6-13.3,3.2-26.5,4.7-39.8Z"/><path class="cls-1" d="M663.1,48.7c-2.5-.6-3.8-.8-6.3-1.4-1.3,6.3-2,9.4-3.3,15.7-2.4-.5-3.5-.7-5.9-1.2,2.6-13.1,5.2-26.2,7.8-39.3,6.4,1.3,9.6,2,16,3.4,8.3,1.9,12.9,8.5,11.2,15.1-1.4,5.6-6.5,9-12.9,8.8,2.7,7.4,3.9,11.1,6.3,18.5-2.7-.7-4.1-1-6.8-1.7-2.4-7.2-3.6-10.8-6.2-17.9ZM676.3,39.5c.9-3.7-1.5-7.5-6.7-8.7-3.6-.8-5.3-1.2-8.9-2-1.2,5.5-1.7,8.2-2.9,13.7,3.5.7,5.2,1.1,8.7,1.9,5.1,1.2,8.9-1.3,9.8-4.9Z"/><path class="cls-1" d="M711.7,26.5c3,.9,4.4,1.3,7.4,2.3-3.9,1.9-5.9,2.8-9.7,4.8-2.4-.7-3.6-1.1-6.1-1.8,3.3-2.1,5-3.2,8.4-5.3ZM704.2,34.5c2.5.7,3.8,1.1,6.3,1.9-3.9,12.8-7.8,25.6-11.7,38.4-2.3-.7-3.5-1.1-5.8-1.7,3.7-12.8,7.5-25.7,11.2-38.5Z"/><path class="cls-1" d="M741.3,46.7c3.2,1.2,4.8,1.8,7.9,3-.2,14.2-.7,28.4-1.5,42.6-2.4-1-3.6-1.5-6.1-2.5.3-4.2.4-6.4.6-10.6-6.1-2.4-9.2-3.6-15.4-5.8-2.6,3.3-3.9,5-6.5,8.4-2.4-.8-3.6-1.2-6-2.1,8.8-11.2,17.7-22.2,26.9-33ZM730.3,69.1c4.9,1.8,7.4,2.7,12.2,4.6.4-8,.5-12,.7-20.1,0,0-.1,0-.2,0-5.2,6.2-7.7,9.3-12.7,15.6Z"/><path class="cls-1" d="M281.4,383.9c.1.2,4.3,1.4,5,1.4,15.9.9,43.8-24.3,55.2-35.1,1.6-1.5,12.5-10,12.9-10.8,1-1.9.9-14.1,1.4-16.9,6.7-37.5,54.6-157.1,86.4-175.6,16.9-9.8,24.9-.2,24,18.2-2.2,46.8-50.9,132.9-83.2,166.3-2,2.1-14,11.4-14.2,13-.6,3.3,1.8,18.7,2.7,22.8,7.1,32.5,31.3,38.6,57.6,22.8,5.1-3.1,30-28.2,31-32.6s.5-10.7,1.6-14.5c6.6-23.5,41.4-55.6,64.3-38.4,7.3,5.5,9.1,20.5-1.9,18.4-4.6-.9-3.5-9.4-7-10.3-27.9-7.3-62,51-33.9,67,25.3,14.4,62-8.8,80.1-27.1,14.4-14.5,20.1-32.1,39.1-42.4,12.2-6.6,45.7-16.5,43,8.4-2.3,21.5-44.5,36.7-61.9,34.3v10.4c0,15.9,34.8,19,45,18.1,10.6-1,42.5-15.1,47.7-25.1,2.7-5.1.8-6.9,1.9-9.8,9.6-26,30.2-49.9,59.6-45.6,7.9,1.2,18.5,19.6,7.9,22.2-9.7,2.3-6.1-7.1-10.7-9.6-16.9-9-40.5,22.3-43.3,37.2-5.3,27.7,14.2,36.1,37.2,32.5,19.9-3.1,47.3-23.1,60.6-38.7s5.6-15.6,16.2-13.9c13.6,2.2-3.5,22.3-5.4,26-16.2,31-4.3,34.2,22.1,20.2,7.7-4.1,49.7-39,52.2-45.3,3.6-9,5.8-23.1,10-32.9,1.4-3.2,15.2-27,14.6-28.6-.4-1-1.5-.9-2.3-1.1-6.5-1.3-42.3,7.8-34.7-9.4,2.2-5,19.1-2.6,24.1-3,4.5-.4,16.9-.9,20.3-2.5,4-1.9,23.8-49.8,32.8-54.2,4.4-1.3,10.1-2.4,11.2,3.6,2,11.5-22.2,48.1-20,49.6l58.8-7.3c7.5-.3,8.1,10.7,1.6,13.1-6.4,2.3-24.9,3.7-32.7,4.7-6.2.9-32.6,2.3-36.2,5-2.4,1.9-16.2,30.9-19,36.3-3.2,5.9-10.5,13.8-12.6,20.5-9.5,29.4-11.2,78.8,32.5,55.7,20.6-10.9,24.9-29.2,38-45.4,12.1-14.9,51.1-45.1,68.9-28.6,14,13-2,36.8-3.6,50.3-3,24.9,18.4,16.5,31.1,9.2,4.1-2.3,20.5-17.4,22.7-17.7,5.1-.7,8.2,4.6,6.8,10-.8,3-21.6,19.3-24.8,20.9-17.8,9.2-48.5,14.5-49.8-14.7-.2-3.9,3.7-6-1-5.9-1.5,0-19.2,18.2-22.5,20.6-10.1,7.3-26.9,15.9-38.1,6.9s-2.8-5-3-5.1c-3.8-1.7-9.5,6.1-13.5,8.6-14.3,8.9-35.6,14.9-50.4,4.4-6.5-4.6-13.2-19.8-13.2-26.3v-10c0-.1-.7-1.7-1-1.7-1.6-.2-20.3,19.2-23.9,21.9-16.5,12.4-69,38.4-67-1.5s3.3-2.9.4-3.1-23.6,14.8-28.2,16.6c-18.8,7.4-50.5,12.4-64.8-6.2-2.3-3-5.1-11.4-7.5-11.8-.8-.1-11.1,9-13.5,10.4-28.1,15.7-82.7,22.3-95-17.3-20.8,21.5-75.3,46.8-99.2,21.2-2.4-2.5-5.6-10.8-8.6-10.1l-19.2,21.3c-3.9,1-8.1,5.9-11.4,7.5-38,19.2-63.5,2-74.3-37.7-.5-2,1.3-8.9-3-8.6s-19.1,17.3-21.9,19.3c-16,11.9-61.3,38.6-66.3,3.2-.2-1.6,1-5.3.6-5.8-.8-1.2-21.1,14.1-22.8,15.7-19.1,7.8-45.7,13.3-44.4-17.4.1-3,3.5-8.6.3-9.4-1.5-.4-22.9,12.4-26.8,13.9-22.2,8.2-53.1,11.9-74.5-.2-2.1-1.2-10.9-10.5-12.2-10.1s-10.6,12.4-13.2,14.5c-52.5,41.9-97.5-9.7-58.7-57.2,9.3-11.4,26.4-21.9,40.9-23.2,3.8-.3,19,2.1,19.7,1.4s-.3-4.5,0-5.7c6.1-25.1,30.4-102.1,61.5-102.5,5.3,0,13.3,4.4,14.3,10.3,6.4,39.3-31.2,108.4-48.8,144.1-1.6,3.3-5.6,1.5-2.4,8.7,5,11.2,34.4,13.3,44.3,12.4,19.6-1.8,52.3-18.8,67.5-33.1,2.6-2.4,5-8.6,7-9.6,8.7-4.4,13,.4,11,9.5-2.1,9.5-13.8,21.2-15.3,32.8-1.5,11.9,2.4,14,12.9,12.1,11.5-2.1,38.3-24.5,47-33,3.2-3.1,18.5-22.2,20.2-22.8,9-3.3,12.5,2.6,9.3,10.8-2.5,6.6-22.2,25.8-22.2,33.3v13.2ZM451.6,159.5c-1.4-.2-3.2,1.1-4.2,1.9-13.1,10.2-42.1,63-50,79.9-12.1,25.7-22.2,54.8-27.5,82.9,8.9-6.2,16.4-16.1,22.8-25,22.5-31.2,56.4-97,59.1-134.6,0-.3,3.1-4.7-.2-5.2ZM136.9,212.7c-3.5-3.6-13.9,9.6-15.7,12.1-12.9,18.3-31.3,60.9-32.2,83.3-.1,2.7,1,25.1,2,26s2.1-.5,2.5-.9c20-37,38.7-77.6,43.4-120.4ZM630.9,315.3c-.3-.3-7,0-8.2.2-6.3,1.1-20,10.1-24.2,13.9-2.6,2.3-6.8,6.8-8.2,10.2,10.1-1,23.3-4.8,31.7-10.6,2.2-1.5,12-10.3,8.9-13.6ZM1022.2,317.5c-3-5.2-22.6,3.2-27,5.7-12.1,6.7-40.8,35.5-36,50.9.7,2.1,7.4,1.9,9.3,1.5,11-2.3,44.1-36.5,50.2-46.6s5.4-8.1,3.5-11.4ZM73.5,319c-28.1-13.6-71.7,27.4-55.5,56.3,13.2,23.5,53.9-5,60.8-23.1-2.4-10.5-3.9-20.4-3.8-31.1l-1.6-2.2Z"/><path class="cls-1" d="M827,286.5c4.7,2.5,4.4,16.3-4.7,17.1-18.3,1.4-11.2-25.4,4.7-17.1Z"/><path class="cls-1" d="M543.6,523.2c-65.6-32.8-19.8-78.2,0-52.5,19.7-26.3,70.3,21,0,52.5Z"/><path class="cls-1" d="M300.4,529.8c1.7.7,2.6,1.1,4.3,1.8-2,4.9-3,7.4-5,12.3,5.5,2.2,8.2,3.3,13.7,5.4,1.9-4.9,2.8-7.4,4.7-12.4,1.7.7,2.6,1,4.3,1.6-3.5,9.5-7.1,19.1-10.6,28.6-1.8-.7-2.7-1-4.6-1.7,1.9-5,2.8-7.5,4.7-12.5-5.5-2.1-8.3-3.2-13.8-5.4-2,4.9-3,7.4-5,12.4-1.8-.7-2.7-1.1-4.5-1.9,3.9-9.4,7.8-18.8,11.7-28.2Z"/><path class="cls-1" d="M336.9,543.6c6.8,2.4,10.3,3.5,17.2,5.6-.5,1.5-.7,2.2-1.2,3.7-5.2-1.6-7.7-2.4-12.9-4.2-1.2,3.5-1.8,5.3-2.9,8.8,4.9,1.6,7.3,2.4,12.2,4-.5,1.5-.7,2.2-1.2,3.7-4.9-1.5-7.4-2.3-12.3-4-1.2,3.6-1.8,5.4-3,9.1,5.4,1.8,8.1,2.7,13.5,4.4-.5,1.5-.7,2.3-1.2,3.8-7.3-2.3-11-3.5-18.2-6,3.3-9.6,6.6-19.2,9.9-28.9Z"/><path class="cls-1" d="M388.1,567.2c-1.3-3.4-4.3-6-8.2-7.1-6.4-1.7-12.3,1.8-14.2,8.4-1.9,6.7,1.5,12.8,8.1,14.5,4,1.1,7.9.2,10.7-2.2,1,1.3,1.5,2,2.4,3.3-3.7,3-8.7,4.2-14.2,2.8-9.6-2.6-14.3-11-11.8-19.8,2.6-8.8,11-13.3,19.9-11,5.3,1.4,9.1,4.8,10.8,9.2-1.5.7-2.2,1-3.7,1.7Z"/><path class="cls-1" d="M405.3,563c1.8.4,2.7.6,4.5,1-1.1,5.2-1.7,7.8-2.8,12.9,5.7,1.2,8.5,1.8,14.2,2.9,1-5.2,1.5-7.8,2.5-13,1.8.3,2.7.5,4.5.8-1.8,10-3.7,20-5.5,30-1.9-.3-2.8-.5-4.7-.9,1-5.2,1.5-7.9,2.5-13.1-5.7-1.1-8.6-1.7-14.3-2.9-1.1,5.2-1.7,7.8-2.8,13-1.9-.4-2.8-.6-4.7-1,2.2-9.9,4.4-19.9,6.6-29.8Z"/><path class="cls-1" d="M439.1,585c1.5-9.1,9.2-14.6,18.3-13.3,9.1,1.2,15,8.6,13.9,17.8-1,9.1-8.7,15.1-18.3,13.8-9.7-1.3-15.4-9.1-13.9-18.2ZM466.6,588.8c.8-6.8-3.2-12.3-9.8-13.2-6.6-.9-11.9,3.3-13,10.1-1.1,6.9,2.9,12.5,9.7,13.4,6.8.9,12.2-3.4,13-10.3Z"/><path class="cls-1" d="M528.5,586.1c-2-3-5.5-4.9-9.4-5.1-6.6-.3-11.5,4.5-11.9,11.3-.4,6.9,4.2,12.2,11,12.4,4.1.2,7.7-1.6,9.9-4.5,1.2,1.1,1.8,1.6,3.1,2.7-2.9,3.8-7.5,6-13.2,5.8-9.9-.4-16.2-7.5-15.7-16.7s7.7-15.4,16.9-15.1c5.4.2,9.8,2.7,12.5,6.6-1.3,1-1.9,1.5-3.2,2.5Z"/><path class="cls-1" d="M542,593.4c0-9.2,6.7-15.9,15.9-16.1,9.2-.2,16.1,6.2,16.6,15.3.4,9.2-6.2,16.3-15.8,16.5-9.8.2-16.6-6.5-16.6-15.7ZM569.7,592.8c-.3-6.9-5.1-11.7-11.7-11.5-6.6.2-11.2,5.2-11.2,12,0,7,4.8,11.9,11.7,11.7,6.9-.2,11.4-5.3,11.2-12.2Z"/><path class="cls-1" d="M609.6,605.4c-7.1-8.4-10.6-12.6-17.2-21.2,0,0-.1,0-.2,0,.7,9,1,13.5,1.7,22.5-1.9.1-2.8.2-4.6.3-.7-10.1-1.4-20.3-2.1-30.4,1.9-.1,2.9-.2,4.8-.4,6.6,8.6,10,12.8,17,21.2,0,0,.1,0,.2,0-.9-9-1.4-13.5-2.3-22.5,1.8-.2,2.7-.3,4.4-.5,1.1,10.1,2.2,20.2,3.3,30.3-2,.2-3,.3-5,.5Z"/><path class="cls-1" d="M651.5,568.9c2.3-.4,3.5-.6,5.8-1,5.3,9.4,10.7,18.7,16.2,28-2,.4-3,.6-5.1,1-1.6-2.8-2.4-4.2-3.9-7.1-4.9.9-7.4,1.4-12.4,2.2-.5,3.2-.8,4.8-1.3,8-2,.3-2.9.5-4.9.8,2-10.6,3.8-21.2,5.6-31.8ZM652.8,587.8c3.9-.7,5.8-1,9.7-1.7-2.9-5.3-4.4-8-7.3-13.4,0,0,0,0-.2,0-.9,6-1.3,9.1-2.3,15.1Z"/><path class="cls-1" d="M698.2,582.9c-5-5.2-7.4-7.8-12.2-13.1,0,0,0,0-.2,0,2,8.9,3,13.4,5.1,22.3-1.8.4-2.7.6-4.6,1-2.2-9.9-4.4-19.9-6.5-29.8,2.2-.5,3.4-.7,5.6-1.3,5.3,6.1,8,9,13.5,15,0,0,.1,0,.2,0,2.2-7.8,3.2-11.7,5.1-19.6,2.1-.6,3.2-.8,5.3-1.4,2.7,9.8,5.3,19.6,8,29.5-1.8.5-2.7.7-4.5,1.2-2.3-8.9-3.5-13.3-5.8-22.2,0,0,0,0-.2,0-1.8,6.9-2.7,10.4-4.7,17.3-1.6.4-2.4.6-4,1Z"/><path class="cls-1" d="M726.7,567.1c-2.6-8.8,2-17.1,10.8-20,8.8-2.8,17.4,1.3,20.4,9.9,3,8.7-1.4,17.4-10.7,20.4-9.4,3-18-1.5-20.6-10.3ZM753.4,558.6c-2.2-6.5-8.2-9.7-14.6-7.7-6.4,2.1-9.4,8.2-7.4,14.7,2,6.7,8,10,14.7,7.9,6.6-2.1,9.6-8.4,7.4-15Z"/><path class="cls-1" d="M781.3,551.7c-1.8.7-2.8,1.1-4.6,1.8,1.7,4.6,2.6,6.8,4.4,11.4-1.8.7-2.7,1-4.6,1.7-3.6-9.5-7.1-19.1-10.7-28.6,4.4-1.6,6.6-2.5,10.9-4.2,5.7-2.2,11.2-.2,13.2,4.5,1.7,4.1.1,8.5-3.9,11.2,4.9,3.4,7.4,5.1,12.4,8.4-2.1.9-3.1,1.3-5.2,2.1-4.8-3.3-7.2-5-11.9-8.4ZM785.4,540.2c-1.1-2.7-4.2-4-7.8-2.6-2.5,1-3.7,1.5-6.2,2.4,1.5,4,2.3,6,3.8,9.9,2.5-1,3.8-1.4,6.3-2.4,3.7-1.4,4.9-4.6,3.9-7.3Z"/></svg>